# xmcd CD database file generated by Grip 3.4.3
# 
# Track frame offsets:
#       150
#       41557
#       79975
#       101895
#       136467
#       178250
#       194550
#       227410
# 
# Disc length: 3424 seconds
# 
# Revision: 2
# Processed by: cddbd v1.5.2PL0 Copyright (c) Steve Scherf et al.
# Submitted via: Grip 3.4.3
# 
DISCID=6f0d5e08
DTITLE=Cherubini Quartett, Christian Zacharias (piano) - Schumann - Pian
DTITLE=o Quintet, String Quartets - CD 1
DYEAR=2002
DGENRE=Classical
TTITLE0=Piano Quintet in E-flat Op. 44 - I. Allegro brillante
TTITLE1=II. In modo d'una Marcia
TTITLE2=III. Scherzo molto vivace
TTITLE3=IV. Allegro, ma non tropo
TTITLE4=String Quartet No. 1 in A minor Op. 41 No. 1 - I. Introduzione - 
TTITLE4=Allegro
TTITLE5=II. Scherzo (Presto) - Intermezzo
TTITLE6=III. Adagio
TTITLE7=IV. Presto 
EXTD=YEAR: 2002
EXTT0=
EXTT1=
EXTT2=
EXTT3=
EXTT4=
EXTT5=
EXTT6=
EXTT7=
PLAYORDER=
